<svg id="Layer_1" enable-background="new 0 0 480 480" height="40" viewBox="0 0 480 480" width="40" xmlns="http://www.w3.org/2000/svg"><path d="m448 20.5h-416c-13.25 0-24 10.75-24 24v321c0 13.25 10.75 24 24 24h416c13.25 0 24-10.75 24-24v-321c0-13.25-10.75-24-24-24z" fill="#cbe3fa"/><path d="m472 44.5v8c0 4.418-3.582 8-8 8h-362c-13.255 0-24 10.745-24 24v14.151c0 1.091-.446 2.135-1.234 2.89l-23.956 22.929c-6.02 5.771-6.61 15.19-1.35 21.65l6.67 8.2c3.777 4.646 9.654 6.639 15.199 5.657 2.44-.432 4.671 1.459 4.671 3.937v171.586c0 2.209-1.791 4-4 4h-66v-295c0-13.255 10.745-24 24-24h416c13.255 0 24 10.745 24 24z" fill="#eef7ff"/><path d="m8 339.5v26c0 13.25 10.75 24 24 24h150.02l-13.99 49.66c-2.87 10.21 4.8 20.34 15.4 20.34h113.14c10.6 0 18.27-10.13 15.4-20.34l-13.99-49.66h150.02c13.25 0 24-10.75 24-24v-26z" fill="#585966"/><path d="m208.381 448.456c2.088 5.298-1.696 11.044-7.391 11.044h-17.56c-10.6 0-18.27-10.13-15.4-20.34l13.99-49.66h29.435c5.303 0 9.138 5.065 7.7 10.169l-11.125 39.491c-.951 3.383-.74 6.527.351 9.296z" fill="#6e6f80"/><path d="m78 343.5v38c0 4.418-3.582 8-8 8h-38c-13.255 0-24-10.745-24-24v-26h66c2.209 0 4 1.791 4 4z" fill="#6e6f80"/><path d="m294.175 413.5h-108.35c-5.303 0-9.138-5.065-7.7-10.169l3.896-13.831h115.96l3.896 13.831c1.436 5.104-2.399 10.169-7.702 10.169z" fill="#42434d"/><path d="m283.19 124.47c6.02 5.77 6.61 15.19 1.35 21.65l-6.67 8.2c-5.38 6.62-15.03 7.85-21.9 2.78l-12.79-9.42v115.82c0 8.84-7.17 16-16 16h-118.36c-8.83 0-16-7.16-16-16v-115.82l-12.79 9.42c-6.87 5.07-16.52 3.84-21.9-2.78l-6.67-8.2c-5.26-6.46-4.67-15.88 1.35-21.65l40.25-38.53c2.97-2.85 6.94-4.44 11.06-4.44h3.04c8.35 0 15.82 5.23 18.63 13.1 4.61 12.91 15.75 30.73 42.21 30.85 26.46-.12 37.6-17.94 42.21-30.85 2.81-7.87 10.28-13.1 18.63-13.1h3.04c4.12 0 8.09 1.59 11.06 4.44z" fill="#ff6d7a"/><path d="m78 109.725v45.98c0 1.778-1.177 3.336-2.88 3.847-6.036 1.808-12.802-.082-16.99-5.232l-6.67-8.2c-5.26-6.46-4.67-15.88 1.35-21.65l18.424-17.634c2.544-2.435 6.766-.632 6.766 2.889z" fill="#ff8c95"/><path d="m416 257.5v8c0 8.84-7.16 16-16 16h-79c-8.84 0-16-7.16-16-16v-8c0-8.84 7.16-16 16-16h79c8.84 0 16 7.16 16 16z" fill="#daffbf"/><g><path d="m472 301.532c4.418 0 8-3.582 8-8v-249.032c0-17.645-14.355-32-32-32h-416c-17.645 0-32 14.355-32 32v321c0 17.645 14.355 32 32 32h139.455l-11.126 39.495c-4.303 15.305 7.174 30.505 23.101 30.505h113.14c15.899 0 27.412-15.169 23.1-30.509l-3.5-12.426c-1.197-4.253-5.615-6.729-9.869-5.531-4.253 1.197-6.729 5.616-5.531 9.869l3.499 12.422c1.437 5.115-2.4 10.175-7.698 10.175h-113.141c-5.299 0-9.135-5.062-7.699-10.171l12.347-43.829h259.922c17.645 0 32-14.355 32-32v-26c0-4.418-3.582-8-8-8h-405.71c-4.418 0-8 3.582-8 8s3.582 8 8 8h397.71v18c0 8.822-7.178 16-16 16h-416c-8.822 0-16-7.178-16-16v-321c0-8.822 7.178-16 16-16h416c8.822 0 16 7.178 16 16v249.032c0 4.418 3.582 8 8 8z"/><path d="m271.666 149.27c-2.697 3.318-7.51 3.931-10.951 1.393l-12.792-9.426c-3.56-2.622-8.566-1.86-11.187 1.694-2.621 3.558-1.862 8.565 1.694 11.187l12.793 9.426c10.33 7.612 24.764 5.775 32.855-4.179l6.664-8.193c7.83-9.63 6.941-23.896-2.023-32.478l-40.244-38.529c-4.488-4.298-10.383-6.664-16.597-6.664h-3.037c-11.718 0-22.231 7.398-26.163 18.411-6.022 16.871-17.702 25.464-34.644 25.539-17.012-.075-28.691-8.668-34.714-25.539-3.93-11.014-14.444-18.412-26.162-18.412h-3.037c-6.214 0-12.108 2.366-16.597 6.664l-40.244 38.529c-8.965 8.582-9.854 22.848-2.022 32.479l6.662 8.192c8.112 9.974 22.625 11.799 32.903 4.145v99.991c0 13.233 10.767 24 24 24h118.354c13.233 0 24-10.767 24-24v-72c0-4.418-3.582-8-8-8s-8 3.582-8 8v72c0 4.411-3.589 8-8 8h-118.354c-4.411 0-8-3.589-8-8v-115.823c0-6.544-7.466-10.331-12.746-6.44l-12.791 9.426c-3.443 2.537-8.254 1.925-10.953-1.394l-6.662-8.191c-2.61-3.21-2.314-7.966.674-10.827l40.244-38.529c2.677-2.561 5.337-2.221 8.569-2.221 4.973 0 9.431 3.131 11.095 7.79 8.286 23.213 25.94 36.055 49.782 36.16 23.771-.105 41.426-12.947 49.712-36.16 1.664-4.659 6.122-7.79 11.095-7.79 3.317 0 5.903-.331 8.569 2.221l40.244 38.529c2.988 2.861 3.284 7.617.675 10.826z"/><path d="m297 257.5v8c0 13.233 10.767 24 24 24h79c13.233 0 24-10.767 24-24 0-4.418-3.582-8-8-8s-8 3.582-8 8c0 4.411-3.589 8-8 8h-79c-4.411 0-8-3.589-8-8v-8c0-4.411 3.589-8 8-8h79c4.418 0 8-3.582 8-8s-3.582-8-8-8h-79c-13.233 0-24 10.767-24 24z"/><path d="m325 89.5h21c4.418 0 8-3.582 8-8s-3.582-8-8-8h-21c-4.418 0-8 3.582-8 8s3.582 8 8 8z"/><path d="m416 73.5h-21c-4.418 0-8 3.582-8 8s3.582 8 8 8h21c4.418 0 8-3.582 8-8s-3.582-8-8-8z"/><path d="m416 128.5h-91c-4.418 0-8 3.582-8 8s3.582 8 8 8h91c4.418 0 8-3.582 8-8s-3.582-8-8-8z"/><path d="m390 199.5c4.418 0 8-3.582 8-8s-3.582-8-8-8h-65c-4.418 0-8 3.582-8 8s3.582 8 8 8z"/></g></svg>